<?xml version="1.0" standalone="no"?>
<svg xmlns="http://www.w3.org/2000/svg" viewBox="0 0 205.8 29" width="205.8" height="29"><path fill="#251818" fill-rule="nonzero" d="M8.30 17.26L8.30 17.26Q5.98 17.26 4.09 16.31Q2.21 15.36 1.10 13.49Q0 11.62 0 8.90L0 8.90Q0 6.84 0.67 5.28Q1.34 3.72 2.51 2.66Q3.67 1.61 5.20 1.08Q6.72 0.55 8.42 0.55L8.42 0.55Q9.79 0.55 10.94 0.86Q12.10 1.18 13.10 1.73L13.10 1.73L13.20 4.68L12.96 4.68L11.76 2.76Q11.52 2.30 11.23 1.93Q10.94 1.56 10.51 1.37L10.51 1.37Q10.15 1.20 9.80 1.12Q9.46 1.03 8.93 1.03L8.93 1.03Q7.54 1.03 6.40 1.78Q5.26 2.52 4.57 4.24Q3.89 5.95 3.89 8.93L3.89 8.93Q3.89 11.88 4.54 13.60Q5.18 15.31 6.30 16.04Q7.42 16.78 8.81 16.78L8.81 16.78Q9.58 16.78 10.03 16.67Q10.49 16.56 10.94 16.34L10.94 16.34Q11.40 16.15 11.64 15.78Q11.88 15.41 12.07 14.98L12.07 14.98L13.13 12.62L13.37 12.62L13.30 16.06Q12.29 16.58 11.04 16.92Q9.79 17.26 8.30 17.26ZM20.54 17.18L20.54 17.18Q18.72 17.18 17.38 16.43Q16.03 15.67 15.30 14.28Q14.57 12.89 14.57 11.02L14.57 11.02Q14.57 9.14 15.35 7.78Q16.13 6.41 17.48 5.66Q18.84 4.92 20.54 4.92L20.54 4.92Q22.25 4.92 23.59 5.65Q24.94 6.38 25.72 7.75Q26.50 9.12 26.50 11.02L26.50 11.02Q26.50 12.91 25.76 14.29Q25.03 15.67 23.70 16.43Q22.37 17.18 20.54 17.18ZM20.54 16.70L20.54 16.70Q21.38 16.70 21.89 16.22Q22.39 15.74 22.62 14.52Q22.85 13.30 22.85 11.06L22.85 11.06Q22.85 8.81 22.62 7.58Q22.39 6.36 21.89 5.88Q21.38 5.40 20.54 5.40L20.54 5.40Q19.70 5.40 19.19 5.88Q18.67 6.36 18.44 7.58Q18.22 8.81 18.22 11.06L18.22 11.06Q18.22 13.30 18.44 14.52Q18.67 15.74 19.19 16.22Q19.70 16.70 20.54 16.70ZM32.64 17.18L32.64 17.18Q31.22 17.18 30.10 16.55Q28.97 15.91 28.31 14.58Q27.65 13.25 27.65 11.16L27.65 11.16Q27.65 9.05 28.39 7.67Q29.14 6.29 30.36 5.60Q31.58 4.92 33.02 4.92L33.02 4.92Q33.86 4.92 34.63 5.09Q35.40 5.26 36 5.59L36 5.59L36 2.47Q36 1.97 35.84 1.73Q35.69 1.49 35.18 1.39L35.18 1.39L34.73 1.30L34.73 1.06L39.10 0L39.36 0.22L39.26 3.58L39.26 15.31Q39.26 15.79 39.43 16.09Q39.60 16.39 40.06 16.51L40.06 16.51L40.27 16.58L40.27 16.82L36.17 17.09L35.95 16.22Q35.30 16.66 34.48 16.92Q33.65 17.18 32.64 17.18ZM34.03 16.30L34.03 16.30Q35.04 16.30 35.88 15.70L35.88 15.70L35.88 6.17Q34.99 5.59 34.06 5.59L34.06 5.59Q32.90 5.59 32.09 6.92Q31.27 8.26 31.27 11.11L31.27 11.11Q31.27 13.97 32.04 15.13Q32.81 16.30 34.03 16.30ZM47.35 4.92L47.35 4.92Q48.91 4.92 50.02 5.56Q51.12 6.19 51.71 7.28Q52.30 8.38 52.30 9.77L52.30 9.77Q52.30 10.03 52.27 10.31Q52.25 10.58 52.18 10.80L52.18 10.80L45.02 10.80Q45.05 13.39 45.95 14.53Q46.85 15.67 48.62 15.67L48.62 15.67Q49.82 15.67 50.57 15.29Q51.31 14.90 51.96 14.16L51.96 14.16L52.20 14.38Q51.46 15.70 50.22 16.44Q48.98 17.18 47.26 17.18L47.26 17.18Q45.55 17.18 44.23 16.45Q42.91 15.72 42.17 14.35Q41.42 12.98 41.42 11.09L41.42 11.09Q41.42 9.12 42.29 7.74Q43.15 6.36 44.51 5.64Q45.86 4.92 47.35 4.92ZM47.28 5.40L47.28 5.40Q46.58 5.40 46.09 5.82Q45.60 6.24 45.32 7.31Q45.05 8.38 45.02 10.32L45.02 10.32L49.13 10.32Q49.37 7.70 48.94 6.55Q48.50 5.40 47.28 5.40ZM57.84 17.18L57.84 17.18Q56.90 17.18 56.12 16.82Q55.34 16.46 54.90 15.66Q54.46 14.86 54.48 13.54L54.48 13.54L54.55 7.37Q54.55 6.82 54.36 6.58Q54.17 6.34 53.76 6.24L53.76 6.24L53.47 6.14L53.47 5.90L57.77 5.06L58.01 5.30L57.89 8.71L57.89 14.50Q57.89 15.26 58.33 15.62Q58.78 15.98 59.45 15.98L59.45 15.98Q60.12 15.98 60.65 15.79Q61.18 15.60 61.70 15.22L61.70 15.22L61.80 7.39Q61.80 6.84 61.63 6.61Q61.46 6.38 61.01 6.29L61.01 6.29L60.77 6.22L60.77 5.98L64.97 5.06L65.21 5.30L65.14 8.71L65.14 15.22Q65.14 15.74 65.28 16.03Q65.42 16.32 65.90 16.51L65.90 16.51L66.14 16.58L66.14 16.82L61.94 17.06L61.73 15.65Q60.94 16.30 60.01 16.74Q59.09 17.18 57.84 17.18ZM73.32 16.82L67.10 16.82L67.10 16.58L67.46 16.49Q67.94 16.34 68.12 16.06Q68.30 15.77 68.30 15.31L68.30 15.31L68.30 7.80Q68.30 7.27 68.12 7.02Q67.94 6.77 67.46 6.67L67.46 6.67L67.10 6.58L67.10 6.34L71.23 4.94L71.47 5.18L71.69 7.25L71.69 7.44Q72.02 6.77 72.56 6.20Q73.10 5.64 73.76 5.28Q74.42 4.92 75.07 4.92L75.07 4.92Q75.98 4.92 76.46 5.42Q76.94 5.93 76.94 6.70L76.94 6.70Q76.94 7.51 76.48 7.96Q76.01 8.40 75.36 8.40L75.36 8.40Q74.35 8.40 73.58 7.39L73.58 7.39L73.54 7.34Q73.30 7.01 72.98 6.97Q72.67 6.94 72.41 7.27L72.41 7.27Q72.17 7.49 72.01 7.79Q71.86 8.09 71.71 8.47L71.71 8.47L71.71 15.17Q71.71 16.13 72.55 16.37L72.55 16.37L73.32 16.58L73.32 16.82ZM88.01 17.18L88.01 17.18Q86.59 17.18 85.46 16.55Q84.34 15.91 83.68 14.58Q83.02 13.25 83.02 11.16L83.02 11.16Q83.02 9.05 83.76 7.67Q84.50 6.29 85.73 5.60Q86.95 4.92 88.39 4.92L88.39 4.92Q89.23 4.92 90 5.09Q90.77 5.26 91.37 5.59L91.37 5.59L91.37 2.47Q91.37 1.97 91.21 1.73Q91.06 1.49 90.55 1.39L90.55 1.39L90.10 1.30L90.10 1.06L94.46 0L94.73 0.22L94.63 3.58L94.63 15.31Q94.63 15.79 94.80 16.09Q94.97 16.39 95.42 16.51L95.42 16.51L95.64 16.58L95.64 16.82L91.54 17.09L91.32 16.22Q90.67 16.66 89.84 16.92Q89.02 17.18 88.01 17.18ZM89.40 16.30L89.40 16.30Q90.41 16.30 91.25 15.70L91.25 15.70L91.25 6.17Q90.36 5.59 89.42 5.59L89.42 5.59Q88.27 5.59 87.46 6.92Q86.64 8.26 86.64 11.11L86.64 11.11Q86.64 13.97 87.41 15.13Q88.18 16.30 89.40 16.30ZM101.04 17.18L101.04 17.18Q100.10 17.18 99.32 16.82Q98.54 16.46 98.10 15.66Q97.66 14.86 97.68 13.54L97.68 13.54L97.75 7.37Q97.75 6.82 97.56 6.58Q97.37 6.34 96.96 6.24L96.96 6.24L96.67 6.14L96.67 5.90L100.97 5.06L101.21 5.30L101.09 8.71L101.09 14.50Q101.09 15.26 101.53 15.62Q101.98 15.98 102.65 15.98L102.65 15.98Q103.32 15.98 103.85 15.79Q104.38 15.60 104.90 15.22L104.90 15.22L105 7.39Q105 6.84 104.83 6.61Q104.66 6.38 104.21 6.29L104.21 6.29L103.97 6.22L103.97 5.98L108.17 5.06L108.41 5.30L108.34 8.71L108.34 15.22Q108.34 15.74 108.48 16.03Q108.62 16.32 109.10 16.51L109.10 16.51L109.34 16.58L109.34 16.82L105.14 17.06L104.93 15.65Q104.14 16.30 103.21 16.74Q102.29 17.18 101.04 17.18ZM122.38 16.90L120.72 16.90L116.47 2.62Q116.30 2.06 116.11 1.81Q115.92 1.56 115.44 1.34L115.44 1.34L115.15 1.22L115.15 0.98L121.51 0.98L121.51 1.22L121.01 1.42Q120.46 1.63 120.26 1.94Q120.07 2.26 120.24 2.81L120.24 2.81L122.86 12.79L125.69 4.42L125.14 2.71Q124.97 2.21 124.82 1.94Q124.68 1.68 124.34 1.51L124.34 1.51L123.82 1.22L123.82 0.98L129.84 0.98L129.84 1.22L129.10 1.51Q128.62 1.68 128.56 2.00Q128.50 2.33 128.66 2.83L128.66 2.83L131.71 13.03L134.59 3.02Q134.76 2.45 134.71 2.02Q134.66 1.58 134.11 1.39L134.11 1.39L133.61 1.22L133.61 0.98L136.94 0.98L136.94 1.22L136.32 1.46Q135.84 1.63 135.65 1.99Q135.46 2.35 135.31 2.88L135.31 2.88L131.33 16.90L129.67 16.90L126.07 5.62L122.38 16.90ZM143.66 4.92L143.66 4.92Q145.22 4.92 146.33 5.56Q147.43 6.19 148.02 7.28Q148.61 8.38 148.61 9.77L148.61 9.77Q148.61 10.03 148.58 10.31Q148.56 10.58 148.49 10.80L148.49 10.80L141.34 10.80Q141.36 13.39 142.26 14.53Q143.16 15.67 144.94 15.67L144.94 15.67Q146.14 15.67 146.88 15.29Q147.62 14.90 148.27 14.16L148.27 14.16L148.51 14.38Q147.77 15.70 146.53 16.44Q145.30 17.18 143.57 17.18L143.57 17.18Q141.86 17.18 140.54 16.45Q139.22 15.72 138.48 14.35Q137.74 12.98 137.74 11.09L137.74 11.09Q137.74 9.12 138.60 7.74Q139.46 6.36 140.82 5.64Q142.18 4.92 143.66 4.92ZM143.59 5.40L143.59 5.40Q142.90 5.40 142.40 5.82Q141.91 6.24 141.64 7.31Q141.36 8.38 141.34 10.32L141.34 10.32L145.44 10.32Q145.68 7.70 145.25 6.55Q144.82 5.40 143.59 5.40ZM154.30 16.27L153.91 17.14L149.86 16.82L149.86 16.58L150.10 16.54Q151.03 16.32 151.03 15.34L151.03 15.34L151.03 2.50Q151.03 1.99 150.88 1.73Q150.72 1.46 150.24 1.37L150.24 1.37L149.90 1.27L149.90 1.03L154.18 0L154.46 0.22L154.37 3.60L154.37 6.02Q155.16 5.47 156.10 5.20Q157.03 4.92 157.99 4.92L157.99 4.92Q159.36 4.92 160.42 5.56Q161.47 6.19 162.08 7.52Q162.70 8.86 162.70 10.94L162.70 10.94Q162.70 13.03 162.01 14.41Q161.33 15.79 160.19 16.49Q159.05 17.18 157.68 17.18L157.68 17.18Q156.79 17.18 155.89 16.94Q154.99 16.70 154.30 16.27L154.30 16.27ZM156.48 16.37L156.48 16.37Q157.25 16.37 157.82 15.89Q158.40 15.41 158.74 14.24Q159.07 13.08 159.07 11.04L159.07 11.04Q159.07 9.00 158.76 7.90Q158.45 6.79 157.88 6.36Q157.32 5.93 156.53 5.93L156.53 5.93Q155.40 5.93 154.44 6.55L154.44 6.55L154.44 15.77Q154.90 16.06 155.38 16.21Q155.86 16.37 156.48 16.37Z" transform="translate(0, 5.872)"></path><line x1="171.696" y1="2%" x2="171.696" y2="98%" stroke="#251818" stroke-linecap="round"></line><g fill="#18c927" color="#18c927" transform="translate(180.696 0) scale(0.5686275)"><svg width="44.0" height="51.0" x="0.0" y="0.0" viewBox="0 0 44 51"><path fill="currentColor" fill-rule="evenodd" d="M22 0L0 12.571v25.143l22 12.572 21.994-12.568.006-.01V12.571L22 0zM6.354 13.778L22 4.84l15.645 8.938-4.231 2.419L22 9.678l-11.411 6.52-4.235-2.42zm17.764 10.158v-8.21L31.3 19.83v8.208l-7.182-4.101zm-11.416-4.107l7.18-4.102v8.207l-7.18 4.103v-8.208zm11.416 19.57l11.415-6.522V19.826l4.233-2.42v17.89l-15.648 8.941v-4.838zM4.233 35.296v-17.89l4.233 2.42v13.049l11.416 6.524v4.838l-15.649-8.94zm10.583-3.63l7.182-4.104 7.183 4.104L22 35.768l-7.184-4.102z"></path></svg></g></svg>